<mxfile host="app.diagrams.net" modified="2022-05-09T17:41:03.764Z" agent="5.0 (Windows NT 10.0; Win64; x64) AppleWebKit/537.36 (KHTML, like Gecko) Chrome/101.0.4951.54 Safari/537.36" etag="vEQ2REKE6I0F0Z2yBn0W" version="17.4.5" type="github">
  <diagram id="C5RBs43oDa-KdzZeNtuy" name="Page-1">
    <mxGraphModel dx="1422" dy="698" grid="1" gridSize="10" guides="1" tooltips="1" connect="1" arrows="1" fold="1" page="1" pageScale="1" pageWidth="827" pageHeight="1169" math="0" shadow="0">
      <root>
        <mxCell id="WIyWlLk6GJQsqaUBKTNV-0" />
        <mxCell id="WIyWlLk6GJQsqaUBKTNV-1" parent="WIyWlLk6GJQsqaUBKTNV-0" />
        <mxCell id="aN0HAKZT7_u-cwa_-y7R-6" style="edgeStyle=orthogonalEdgeStyle;rounded=0;orthogonalLoop=1;jettySize=auto;html=1;entryX=0.5;entryY=0;entryDx=0;entryDy=0;" parent="WIyWlLk6GJQsqaUBKTNV-1" target="aN0HAKZT7_u-cwa_-y7R-0" edge="1">
          <mxGeometry relative="1" as="geometry">
            <mxPoint x="220" y="170" as="targetPoint" />
            <mxPoint x="220" y="150" as="sourcePoint" />
          </mxGeometry>
        </mxCell>
        <mxCell id="WIyWlLk6GJQsqaUBKTNV-11" value="结束" style="rounded=1;whiteSpace=wrap;html=1;fontSize=12;glass=0;strokeWidth=1;shadow=0;arcSize=38;" parent="WIyWlLk6GJQsqaUBKTNV-1" vertex="1">
          <mxGeometry x="160" y="440" width="120" height="40" as="geometry" />
        </mxCell>
        <mxCell id="Vqb6RfswC_d7fsobhEjI-1" value="" style="edgeStyle=orthogonalEdgeStyle;rounded=0;orthogonalLoop=1;jettySize=auto;html=1;" edge="1" parent="WIyWlLk6GJQsqaUBKTNV-1" source="aN0HAKZT7_u-cwa_-y7R-0" target="Vqb6RfswC_d7fsobhEjI-0">
          <mxGeometry relative="1" as="geometry" />
        </mxCell>
        <mxCell id="aN0HAKZT7_u-cwa_-y7R-0" value="编辑的文字消息" style="shape=parallelogram;html=1;strokeWidth=1;perimeter=parallelogramPerimeter;whiteSpace=wrap;rounded=1;arcSize=0;size=0.23;" parent="WIyWlLk6GJQsqaUBKTNV-1" vertex="1">
          <mxGeometry x="132.5" y="180" width="175" height="40" as="geometry" />
        </mxCell>
        <mxCell id="JZTR_e5X0-ycpCvXNEsE-15" style="edgeStyle=orthogonalEdgeStyle;rounded=0;orthogonalLoop=1;jettySize=auto;html=1;exitX=0.5;exitY=1;exitDx=0;exitDy=0;entryX=0.5;entryY=0;entryDx=0;entryDy=0;" parent="WIyWlLk6GJQsqaUBKTNV-1" source="Vqb6RfswC_d7fsobhEjI-4" target="WIyWlLk6GJQsqaUBKTNV-11" edge="1">
          <mxGeometry relative="1" as="geometry">
            <mxPoint x="220" y="420" as="sourcePoint" />
          </mxGeometry>
        </mxCell>
        <mxCell id="JZTR_e5X0-ycpCvXNEsE-13" value="开始" style="rounded=1;whiteSpace=wrap;html=1;fontSize=12;glass=0;strokeWidth=1;shadow=0;arcSize=38;" parent="WIyWlLk6GJQsqaUBKTNV-1" vertex="1">
          <mxGeometry x="160" y="110" width="120" height="40" as="geometry" />
        </mxCell>
        <mxCell id="Vqb6RfswC_d7fsobhEjI-3" value="" style="edgeStyle=orthogonalEdgeStyle;rounded=0;orthogonalLoop=1;jettySize=auto;html=1;" edge="1" parent="WIyWlLk6GJQsqaUBKTNV-1" source="Vqb6RfswC_d7fsobhEjI-0" target="Vqb6RfswC_d7fsobhEjI-2">
          <mxGeometry relative="1" as="geometry" />
        </mxCell>
        <mxCell id="Vqb6RfswC_d7fsobhEjI-0" value="发送到后端服务器" style="whiteSpace=wrap;html=1;strokeWidth=1;rounded=1;arcSize=0;" vertex="1" parent="WIyWlLk6GJQsqaUBKTNV-1">
          <mxGeometry x="340" y="170" width="120" height="60" as="geometry" />
        </mxCell>
        <mxCell id="Vqb6RfswC_d7fsobhEjI-5" value="" style="edgeStyle=orthogonalEdgeStyle;rounded=0;orthogonalLoop=1;jettySize=auto;html=1;" edge="1" parent="WIyWlLk6GJQsqaUBKTNV-1" source="Vqb6RfswC_d7fsobhEjI-2" target="Vqb6RfswC_d7fsobhEjI-4">
          <mxGeometry relative="1" as="geometry">
            <Array as="points">
              <mxPoint x="310" y="305" />
              <mxPoint x="310" y="305" />
            </Array>
          </mxGeometry>
        </mxCell>
        <mxCell id="Vqb6RfswC_d7fsobhEjI-6" value="是" style="edgeLabel;html=1;align=center;verticalAlign=middle;resizable=0;points=[];" vertex="1" connectable="0" parent="Vqb6RfswC_d7fsobhEjI-5">
          <mxGeometry x="-0.1314" relative="1" as="geometry">
            <mxPoint as="offset" />
          </mxGeometry>
        </mxCell>
        <mxCell id="Vqb6RfswC_d7fsobhEjI-8" value="" style="edgeStyle=orthogonalEdgeStyle;rounded=0;orthogonalLoop=1;jettySize=auto;html=1;" edge="1" parent="WIyWlLk6GJQsqaUBKTNV-1" source="Vqb6RfswC_d7fsobhEjI-2" target="Vqb6RfswC_d7fsobhEjI-7">
          <mxGeometry relative="1" as="geometry" />
        </mxCell>
        <mxCell id="Vqb6RfswC_d7fsobhEjI-9" value="否" style="edgeLabel;html=1;align=center;verticalAlign=middle;resizable=0;points=[];" vertex="1" connectable="0" parent="Vqb6RfswC_d7fsobhEjI-8">
          <mxGeometry x="-0.3053" y="-1" relative="1" as="geometry">
            <mxPoint y="6" as="offset" />
          </mxGeometry>
        </mxCell>
        <mxCell id="Vqb6RfswC_d7fsobhEjI-2" value="是否发送给&lt;br&gt;所有人" style="rhombus;whiteSpace=wrap;html=1;strokeWidth=1;rounded=1;arcSize=0;" vertex="1" parent="WIyWlLk6GJQsqaUBKTNV-1">
          <mxGeometry x="340" y="260" width="120" height="90" as="geometry" />
        </mxCell>
        <mxCell id="Vqb6RfswC_d7fsobhEjI-4" value="发送给除发送者之外的所有人" style="whiteSpace=wrap;html=1;strokeWidth=1;rounded=1;arcSize=0;" vertex="1" parent="WIyWlLk6GJQsqaUBKTNV-1">
          <mxGeometry x="160" y="270" width="120" height="60" as="geometry" />
        </mxCell>
        <mxCell id="Vqb6RfswC_d7fsobhEjI-11" style="edgeStyle=orthogonalEdgeStyle;rounded=0;orthogonalLoop=1;jettySize=auto;html=1;exitX=0;exitY=0.5;exitDx=0;exitDy=0;" edge="1" parent="WIyWlLk6GJQsqaUBKTNV-1" source="Vqb6RfswC_d7fsobhEjI-7">
          <mxGeometry relative="1" as="geometry">
            <mxPoint x="220" y="410" as="targetPoint" />
          </mxGeometry>
        </mxCell>
        <mxCell id="Vqb6RfswC_d7fsobhEjI-7" value="发送指定人" style="whiteSpace=wrap;html=1;strokeWidth=1;rounded=1;arcSize=0;" vertex="1" parent="WIyWlLk6GJQsqaUBKTNV-1">
          <mxGeometry x="340" y="390" width="120" height="40" as="geometry" />
        </mxCell>
      </root>
    </mxGraphModel>
  </diagram>
</mxfile>
